<mxfile host="Electron" modified="2023-10-12T15:20:54.933Z" agent="Mozilla/5.0 (Windows NT 10.0; Win64; x64) AppleWebKit/537.36 (KHTML, like Gecko) draw.io/22.0.2 Chrome/114.0.5735.289 Electron/25.8.4 Safari/537.36" etag="E_4yF3k4bgue0mTNI4De" version="22.0.2" type="device">
  <diagram name="Pagina-1" id="3GUrcIURofEGodW_gyDJ">
    <mxGraphModel dx="1276" dy="654" grid="1" gridSize="10" guides="1" tooltips="1" connect="1" arrows="1" fold="1" page="1" pageScale="1" pageWidth="827" pageHeight="1169" math="0" shadow="0">
      <root>
        <mxCell id="0" />
        <mxCell id="1" parent="0" />
        <mxCell id="0ZmSG-Y-9QNbXud12Uuj-1" value="" style="rounded=0;whiteSpace=wrap;html=1;" vertex="1" parent="1">
          <mxGeometry x="350" y="310" width="120" height="60" as="geometry" />
        </mxCell>
        <mxCell id="0ZmSG-Y-9QNbXud12Uuj-20" style="edgeStyle=orthogonalEdgeStyle;rounded=0;orthogonalLoop=1;jettySize=auto;html=1;exitX=0.75;exitY=1;exitDx=0;exitDy=0;entryX=0;entryY=1;entryDx=0;entryDy=0;" edge="1" parent="1" source="0ZmSG-Y-9QNbXud12Uuj-2">
          <mxGeometry relative="1" as="geometry">
            <mxPoint x="510" y="640" as="targetPoint" />
            <Array as="points">
              <mxPoint x="510" y="660" />
            </Array>
          </mxGeometry>
        </mxCell>
        <mxCell id="0ZmSG-Y-9QNbXud12Uuj-21" style="edgeStyle=orthogonalEdgeStyle;rounded=0;orthogonalLoop=1;jettySize=auto;html=1;exitX=0.75;exitY=1;exitDx=0;exitDy=0;entryX=0.25;entryY=1;entryDx=0;entryDy=0;" edge="1" parent="1" source="0ZmSG-Y-9QNbXud12Uuj-2">
          <mxGeometry relative="1" as="geometry">
            <mxPoint x="540" y="640" as="targetPoint" />
            <Array as="points">
              <mxPoint x="540" y="660" />
            </Array>
          </mxGeometry>
        </mxCell>
        <mxCell id="0ZmSG-Y-9QNbXud12Uuj-2" value="" style="rounded=0;whiteSpace=wrap;html=1;" vertex="1" parent="1">
          <mxGeometry x="30" y="110" width="500" height="550" as="geometry" />
        </mxCell>
        <mxCell id="0ZmSG-Y-9QNbXud12Uuj-3" value="" style="rounded=0;whiteSpace=wrap;html=1;" vertex="1" parent="1">
          <mxGeometry x="445" y="255" width="190" height="60" as="geometry" />
        </mxCell>
        <mxCell id="0ZmSG-Y-9QNbXud12Uuj-7" value="" style="ellipse;whiteSpace=wrap;html=1;" vertex="1" parent="1">
          <mxGeometry x="390" y="450" width="280" height="270" as="geometry" />
        </mxCell>
        <mxCell id="0ZmSG-Y-9QNbXud12Uuj-13" value="" style="rounded=0;whiteSpace=wrap;html=1;" vertex="1" parent="1">
          <mxGeometry x="400" y="570" width="70" height="30" as="geometry" />
        </mxCell>
        <mxCell id="0ZmSG-Y-9QNbXud12Uuj-14" value="Switch" style="text;html=1;strokeColor=none;fillColor=none;align=center;verticalAlign=middle;whiteSpace=wrap;rounded=0;" vertex="1" parent="1">
          <mxGeometry x="405" y="570" width="60" height="30" as="geometry" />
        </mxCell>
        <mxCell id="0ZmSG-Y-9QNbXud12Uuj-16" value="Perimetral Firewall" style="text;html=1;strokeColor=none;fillColor=none;align=center;verticalAlign=middle;whiteSpace=wrap;rounded=0;" vertex="1" parent="1">
          <mxGeometry x="475" y="270" width="120" height="30" as="geometry" />
        </mxCell>
        <mxCell id="0ZmSG-Y-9QNbXud12Uuj-17" value="" style="rounded=0;whiteSpace=wrap;html=1;" vertex="1" parent="1">
          <mxGeometry x="60" y="195" width="210" height="230" as="geometry" />
        </mxCell>
        <mxCell id="0ZmSG-Y-9QNbXud12Uuj-18" value="" style="ellipse;whiteSpace=wrap;html=1;" vertex="1" parent="1">
          <mxGeometry x="405" y="345" width="80" height="80" as="geometry" />
        </mxCell>
        <mxCell id="0ZmSG-Y-9QNbXud12Uuj-19" value="Router" style="text;html=1;strokeColor=none;fillColor=none;align=center;verticalAlign=middle;whiteSpace=wrap;rounded=0;" vertex="1" parent="1">
          <mxGeometry x="415" y="370" width="60" height="30" as="geometry" />
        </mxCell>
        <mxCell id="0ZmSG-Y-9QNbXud12Uuj-22" value="" style="endArrow=none;html=1;rounded=0;exitX=0.087;exitY=0.786;exitDx=0;exitDy=0;exitPerimeter=0;entryX=0.5;entryY=0.786;entryDx=0;entryDy=0;entryPerimeter=0;" edge="1" parent="1">
          <mxGeometry width="50" height="50" relative="1" as="geometry">
            <mxPoint x="413.9999999999999" y="660" as="sourcePoint" />
            <mxPoint x="529.64" y="660" as="targetPoint" />
          </mxGeometry>
        </mxCell>
        <mxCell id="0ZmSG-Y-9QNbXud12Uuj-24" value="" style="endArrow=none;html=1;rounded=0;" edge="1" parent="1">
          <mxGeometry width="50" height="50" relative="1" as="geometry">
            <mxPoint x="530" y="660" as="sourcePoint" />
            <mxPoint x="530" y="640" as="targetPoint" />
          </mxGeometry>
        </mxCell>
        <mxCell id="0ZmSG-Y-9QNbXud12Uuj-25" value="" style="rounded=0;whiteSpace=wrap;html=1;rotation=-90;" vertex="1" parent="1">
          <mxGeometry x="145" y="255" width="120" height="50" as="geometry" />
        </mxCell>
        <mxCell id="0ZmSG-Y-9QNbXud12Uuj-26" value="" style="rounded=0;whiteSpace=wrap;html=1;rotation=-90;" vertex="1" parent="1">
          <mxGeometry x="50" y="255" width="120" height="50" as="geometry" />
        </mxCell>
        <mxCell id="0ZmSG-Y-9QNbXud12Uuj-27" value="Nas" style="text;html=1;strokeColor=none;fillColor=none;align=center;verticalAlign=middle;whiteSpace=wrap;rounded=0;" vertex="1" parent="1">
          <mxGeometry x="80" y="265" width="60" height="30" as="geometry" />
        </mxCell>
        <mxCell id="0ZmSG-Y-9QNbXud12Uuj-28" value="Rete interna" style="text;html=1;strokeColor=none;fillColor=none;align=center;verticalAlign=middle;whiteSpace=wrap;rounded=0;" vertex="1" parent="1">
          <mxGeometry x="60" y="390" width="60" height="30" as="geometry" />
        </mxCell>
        <mxCell id="0ZmSG-Y-9QNbXud12Uuj-29" value="DMZ" style="text;html=1;strokeColor=none;fillColor=none;align=center;verticalAlign=middle;whiteSpace=wrap;rounded=0;" vertex="1" parent="1">
          <mxGeometry x="510" y="680" width="60" height="30" as="geometry" />
        </mxCell>
        <mxCell id="0ZmSG-Y-9QNbXud12Uuj-30" value="" style="rounded=0;whiteSpace=wrap;html=1;" vertex="1" parent="1">
          <mxGeometry x="170" y="370" width="70" height="30" as="geometry" />
        </mxCell>
        <mxCell id="0ZmSG-Y-9QNbXud12Uuj-32" value="Service server" style="text;html=1;strokeColor=none;fillColor=none;align=center;verticalAlign=middle;whiteSpace=wrap;rounded=0;" vertex="1" parent="1">
          <mxGeometry x="175" y="270" width="60" height="30" as="geometry" />
        </mxCell>
        <mxCell id="0ZmSG-Y-9QNbXud12Uuj-34" value="" style="rounded=0;whiteSpace=wrap;html=1;" vertex="1" parent="1">
          <mxGeometry x="280" y="367.5" width="80" height="35" as="geometry" />
        </mxCell>
        <mxCell id="0ZmSG-Y-9QNbXud12Uuj-35" value="" style="rounded=0;whiteSpace=wrap;html=1;" vertex="1" parent="1">
          <mxGeometry x="300" y="540" width="80" height="30" as="geometry" />
        </mxCell>
        <mxCell id="0ZmSG-Y-9QNbXud12Uuj-37" value="IPS" style="text;html=1;strokeColor=none;fillColor=none;align=center;verticalAlign=middle;whiteSpace=wrap;rounded=0;" vertex="1" parent="1">
          <mxGeometry x="310" y="540" width="60" height="30" as="geometry" />
        </mxCell>
        <mxCell id="0ZmSG-Y-9QNbXud12Uuj-39" value="IDS" style="text;html=1;strokeColor=none;fillColor=none;align=center;verticalAlign=middle;whiteSpace=wrap;rounded=0;" vertex="1" parent="1">
          <mxGeometry x="290" y="370" width="60" height="30" as="geometry" />
        </mxCell>
        <mxCell id="0ZmSG-Y-9QNbXud12Uuj-40" value="" style="endArrow=none;html=1;rounded=0;exitX=0;exitY=0;exitDx=0;exitDy=0;entryX=1;entryY=1;entryDx=0;entryDy=0;" edge="1" parent="1" source="0ZmSG-Y-9QNbXud12Uuj-14" target="0ZmSG-Y-9QNbXud12Uuj-35">
          <mxGeometry width="50" height="50" relative="1" as="geometry">
            <mxPoint x="500" y="430" as="sourcePoint" />
            <mxPoint x="550" y="380" as="targetPoint" />
          </mxGeometry>
        </mxCell>
        <mxCell id="0ZmSG-Y-9QNbXud12Uuj-41" value="" style="endArrow=none;html=1;rounded=0;exitX=1;exitY=0.5;exitDx=0;exitDy=0;entryX=0;entryY=0.5;entryDx=0;entryDy=0;" edge="1" parent="1" source="0ZmSG-Y-9QNbXud12Uuj-30" target="0ZmSG-Y-9QNbXud12Uuj-34">
          <mxGeometry width="50" height="50" relative="1" as="geometry">
            <mxPoint x="490" y="430" as="sourcePoint" />
            <mxPoint x="540" y="380" as="targetPoint" />
          </mxGeometry>
        </mxCell>
        <mxCell id="0ZmSG-Y-9QNbXud12Uuj-43" value="" style="endArrow=none;html=1;rounded=0;exitX=1;exitY=0.5;exitDx=0;exitDy=0;entryX=0;entryY=0.5;entryDx=0;entryDy=0;" edge="1" parent="1" source="0ZmSG-Y-9QNbXud12Uuj-34" target="0ZmSG-Y-9QNbXud12Uuj-18">
          <mxGeometry width="50" height="50" relative="1" as="geometry">
            <mxPoint x="490" y="430" as="sourcePoint" />
            <mxPoint x="540" y="380" as="targetPoint" />
          </mxGeometry>
        </mxCell>
        <mxCell id="0ZmSG-Y-9QNbXud12Uuj-44" value="" style="endArrow=none;html=1;rounded=0;exitX=0.5;exitY=0;exitDx=0;exitDy=0;entryX=0;entryY=1;entryDx=0;entryDy=0;" edge="1" parent="1" source="0ZmSG-Y-9QNbXud12Uuj-18" target="0ZmSG-Y-9QNbXud12Uuj-3">
          <mxGeometry width="50" height="50" relative="1" as="geometry">
            <mxPoint x="490" y="430" as="sourcePoint" />
            <mxPoint x="540" y="380" as="targetPoint" />
          </mxGeometry>
        </mxCell>
        <mxCell id="0ZmSG-Y-9QNbXud12Uuj-45" value="" style="endArrow=none;html=1;rounded=0;exitX=0.5;exitY=0;exitDx=0;exitDy=0;entryX=0;entryY=1;entryDx=0;entryDy=0;" edge="1" parent="1" source="0ZmSG-Y-9QNbXud12Uuj-37" target="0ZmSG-Y-9QNbXud12Uuj-18">
          <mxGeometry width="50" height="50" relative="1" as="geometry">
            <mxPoint x="490" y="430" as="sourcePoint" />
            <mxPoint x="540" y="380" as="targetPoint" />
          </mxGeometry>
        </mxCell>
        <mxCell id="0ZmSG-Y-9QNbXud12Uuj-46" value="" style="rounded=0;whiteSpace=wrap;html=1;" vertex="1" parent="1">
          <mxGeometry x="515" y="600" width="115" height="40" as="geometry" />
        </mxCell>
        <mxCell id="0ZmSG-Y-9QNbXud12Uuj-47" value="Server SMTP" style="text;html=1;strokeColor=none;fillColor=none;align=center;verticalAlign=middle;whiteSpace=wrap;rounded=0;" vertex="1" parent="1">
          <mxGeometry x="542.5" y="605" width="60" height="30" as="geometry" />
        </mxCell>
        <mxCell id="0ZmSG-Y-9QNbXud12Uuj-48" value="" style="rounded=0;whiteSpace=wrap;html=1;" vertex="1" parent="1">
          <mxGeometry x="515" y="510" width="115" height="40" as="geometry" />
        </mxCell>
        <mxCell id="0ZmSG-Y-9QNbXud12Uuj-49" value="Server HTTP" style="text;html=1;strokeColor=none;fillColor=none;align=center;verticalAlign=middle;whiteSpace=wrap;rounded=0;" vertex="1" parent="1">
          <mxGeometry x="542.5" y="515" width="60" height="30" as="geometry" />
        </mxCell>
        <mxCell id="0ZmSG-Y-9QNbXud12Uuj-50" value="" style="endArrow=none;html=1;rounded=0;exitX=0.12;exitY=0.035;exitDx=0;exitDy=0;exitPerimeter=0;" edge="1" parent="1" source="0ZmSG-Y-9QNbXud12Uuj-46">
          <mxGeometry width="50" height="50" relative="1" as="geometry">
            <mxPoint x="490" y="430" as="sourcePoint" />
            <mxPoint x="529" y="550" as="targetPoint" />
          </mxGeometry>
        </mxCell>
        <mxCell id="0ZmSG-Y-9QNbXud12Uuj-51" value="" style="endArrow=none;html=1;rounded=0;entryX=0.5;entryY=0;entryDx=0;entryDy=0;" edge="1" parent="1" target="0ZmSG-Y-9QNbXud12Uuj-7">
          <mxGeometry width="50" height="50" relative="1" as="geometry">
            <mxPoint x="530" y="510" as="sourcePoint" />
            <mxPoint x="540" y="380" as="targetPoint" />
          </mxGeometry>
        </mxCell>
        <mxCell id="0ZmSG-Y-9QNbXud12Uuj-52" value="" style="endArrow=none;html=1;rounded=0;exitX=0;exitY=0.5;exitDx=0;exitDy=0;entryX=0.5;entryY=0;entryDx=0;entryDy=0;" edge="1" parent="1" source="0ZmSG-Y-9QNbXud12Uuj-25">
          <mxGeometry width="50" height="50" relative="1" as="geometry">
            <mxPoint x="490" y="430" as="sourcePoint" />
            <mxPoint x="205" y="370" as="targetPoint" />
          </mxGeometry>
        </mxCell>
        <mxCell id="0ZmSG-Y-9QNbXud12Uuj-53" value="" style="endArrow=none;html=1;rounded=0;exitX=0;exitY=0.5;exitDx=0;exitDy=0;entryX=0;entryY=0;entryDx=0;entryDy=0;" edge="1" parent="1" source="0ZmSG-Y-9QNbXud12Uuj-26">
          <mxGeometry width="50" height="50" relative="1" as="geometry">
            <mxPoint x="490" y="430" as="sourcePoint" />
            <mxPoint x="175" y="370" as="targetPoint" />
          </mxGeometry>
        </mxCell>
        <mxCell id="0ZmSG-Y-9QNbXud12Uuj-54" value="" style="endArrow=none;html=1;rounded=0;exitX=1;exitY=0;exitDx=0;exitDy=0;entryX=0;entryY=0.5;entryDx=0;entryDy=0;" edge="1" parent="1" source="0ZmSG-Y-9QNbXud12Uuj-13" target="0ZmSG-Y-9QNbXud12Uuj-48">
          <mxGeometry width="50" height="50" relative="1" as="geometry">
            <mxPoint x="490" y="430" as="sourcePoint" />
            <mxPoint x="540" y="380" as="targetPoint" />
          </mxGeometry>
        </mxCell>
        <mxCell id="0ZmSG-Y-9QNbXud12Uuj-55" value="" style="endArrow=none;html=1;rounded=0;exitX=1;exitY=1;exitDx=0;exitDy=0;entryX=0;entryY=0.5;entryDx=0;entryDy=0;" edge="1" parent="1" source="0ZmSG-Y-9QNbXud12Uuj-13" target="0ZmSG-Y-9QNbXud12Uuj-46">
          <mxGeometry width="50" height="50" relative="1" as="geometry">
            <mxPoint x="490" y="430" as="sourcePoint" />
            <mxPoint x="540" y="380" as="targetPoint" />
          </mxGeometry>
        </mxCell>
        <mxCell id="0ZmSG-Y-9QNbXud12Uuj-60" value="WAF" style="rounded=0;whiteSpace=wrap;html=1;" vertex="1" parent="1">
          <mxGeometry x="730" y="562" width="80" height="45" as="geometry" />
        </mxCell>
        <mxCell id="0ZmSG-Y-9QNbXud12Uuj-62" value="Rete&lt;br&gt;ESterna" style="ellipse;shape=cloud;whiteSpace=wrap;html=1;" vertex="1" parent="1">
          <mxGeometry x="870" y="540" width="120" height="80" as="geometry" />
        </mxCell>
        <mxCell id="0ZmSG-Y-9QNbXud12Uuj-63" value="" style="endArrow=none;html=1;rounded=0;entryX=0.16;entryY=0.55;entryDx=0;entryDy=0;entryPerimeter=0;exitX=1;exitY=0.5;exitDx=0;exitDy=0;" edge="1" parent="1" source="0ZmSG-Y-9QNbXud12Uuj-60" target="0ZmSG-Y-9QNbXud12Uuj-62">
          <mxGeometry width="50" height="50" relative="1" as="geometry">
            <mxPoint x="490" y="430" as="sourcePoint" />
            <mxPoint x="540" y="380" as="targetPoint" />
          </mxGeometry>
        </mxCell>
        <mxCell id="0ZmSG-Y-9QNbXud12Uuj-64" value="" style="endArrow=none;html=1;rounded=0;entryX=0;entryY=0.5;entryDx=0;entryDy=0;exitX=1;exitY=0.5;exitDx=0;exitDy=0;" edge="1" parent="1" source="0ZmSG-Y-9QNbXud12Uuj-7" target="0ZmSG-Y-9QNbXud12Uuj-60">
          <mxGeometry width="50" height="50" relative="1" as="geometry">
            <mxPoint x="490" y="430" as="sourcePoint" />
            <mxPoint x="540" y="380" as="targetPoint" />
          </mxGeometry>
        </mxCell>
        <mxCell id="0ZmSG-Y-9QNbXud12Uuj-65" value="" style="rounded=0;whiteSpace=wrap;html=1;" vertex="1" parent="1">
          <mxGeometry x="180" y="470" width="80" height="40" as="geometry" />
        </mxCell>
        <mxCell id="0ZmSG-Y-9QNbXud12Uuj-66" value="Switch" style="text;html=1;strokeColor=none;fillColor=none;align=center;verticalAlign=middle;whiteSpace=wrap;rounded=0;" vertex="1" parent="1">
          <mxGeometry x="190" y="475" width="60" height="30" as="geometry" />
        </mxCell>
        <mxCell id="0ZmSG-Y-9QNbXud12Uuj-70" value="Switch" style="text;html=1;strokeColor=none;fillColor=none;align=center;verticalAlign=middle;whiteSpace=wrap;rounded=0;" vertex="1" parent="1">
          <mxGeometry x="175" y="370" width="60" height="30" as="geometry" />
        </mxCell>
        <mxCell id="0ZmSG-Y-9QNbXud12Uuj-71" value="" style="endArrow=none;html=1;rounded=0;exitX=1;exitY=0;exitDx=0;exitDy=0;entryX=0.028;entryY=0.705;entryDx=0;entryDy=0;entryPerimeter=0;" edge="1" parent="1" source="0ZmSG-Y-9QNbXud12Uuj-65" target="0ZmSG-Y-9QNbXud12Uuj-18">
          <mxGeometry width="50" height="50" relative="1" as="geometry">
            <mxPoint x="490" y="430" as="sourcePoint" />
            <mxPoint x="540" y="380" as="targetPoint" />
          </mxGeometry>
        </mxCell>
        <mxCell id="0ZmSG-Y-9QNbXud12Uuj-72" value="PC1" style="rounded=1;whiteSpace=wrap;html=1;" vertex="1" parent="1">
          <mxGeometry x="155" y="580" width="75" height="35" as="geometry" />
        </mxCell>
        <mxCell id="0ZmSG-Y-9QNbXud12Uuj-73" value="PC2" style="rounded=1;whiteSpace=wrap;html=1;" vertex="1" parent="1">
          <mxGeometry x="50" y="580" width="70" height="35" as="geometry" />
        </mxCell>
        <mxCell id="0ZmSG-Y-9QNbXud12Uuj-74" value="" style="endArrow=none;html=1;rounded=0;exitX=0.5;exitY=0;exitDx=0;exitDy=0;entryX=0.5;entryY=1;entryDx=0;entryDy=0;" edge="1" parent="1" source="0ZmSG-Y-9QNbXud12Uuj-72" target="0ZmSG-Y-9QNbXud12Uuj-65">
          <mxGeometry width="50" height="50" relative="1" as="geometry">
            <mxPoint x="490" y="430" as="sourcePoint" />
            <mxPoint x="540" y="380" as="targetPoint" />
          </mxGeometry>
        </mxCell>
        <mxCell id="0ZmSG-Y-9QNbXud12Uuj-75" value="" style="endArrow=none;html=1;rounded=0;exitX=0.5;exitY=0;exitDx=0;exitDy=0;entryX=0;entryY=1;entryDx=0;entryDy=0;" edge="1" parent="1" source="0ZmSG-Y-9QNbXud12Uuj-73" target="0ZmSG-Y-9QNbXud12Uuj-65">
          <mxGeometry width="50" height="50" relative="1" as="geometry">
            <mxPoint x="490" y="430" as="sourcePoint" />
            <mxPoint x="540" y="380" as="targetPoint" />
          </mxGeometry>
        </mxCell>
      </root>
    </mxGraphModel>
  </diagram>
</mxfile>
